<svg width="1440" height="1024" viewBox="0 0 1440 1024" fill="none" xmlns="http://www.w3.org/2000/svg">
<g clip-path="url(#clip0_525_15597)">
<rect width="1440" height="1024" fill="white"/>
<g filter="url(#filter0_f_525_15597)">
<path d="M1471 281.5C1471 427.579 1352.58 546 1206.5 546C1060.42 546 942 427.579 942 281.5C942 135.421 1060.42 17 1206.5 17C1352.58 17 1471 135.421 1471 281.5Z" fill="#D38EC4" fill-opacity="0.5"/>
</g>
<g filter="url(#filter1_f_525_15597)">
<path d="M960 133C960 243.457 870.457 333 760 333C649.543 333 560 243.457 560 133C560 22.543 649.543 -67 760 -67C870.457 -67 960 22.543 960 133Z" fill="#D38EC4" fill-opacity="0.5"/>
</g>
<g filter="url(#filter2_f_525_15597)">
<circle cx="214.5" cy="828.5" r="316.5" fill="#FFE77E" fill-opacity="0.5"/>
</g>
<g filter="url(#filter3_f_525_15597)">
<circle cx="628" cy="1057" r="196" fill="#FFE77E" fill-opacity="0.5"/>
</g>
</g>
<defs>
<filter id="filter0_f_525_15597" x="444.118" y="-480.882" width="1524.76" height="1524.76" filterUnits="userSpaceOnUse" color-interpolation-filters="sRGB">
<feFlood flood-opacity="0" result="BackgroundImageFix"/>
<feBlend mode="normal" in="SourceGraphic" in2="BackgroundImageFix" result="shape"/>
<feGaussianBlur stdDeviation="248.941" result="effect1_foregroundBlur_525_15597"/>
</filter>
<filter id="filter1_f_525_15597" x="183.529" y="-443.471" width="1152.94" height="1152.94" filterUnits="userSpaceOnUse" color-interpolation-filters="sRGB">
<feFlood flood-opacity="0" result="BackgroundImageFix"/>
<feBlend mode="normal" in="SourceGraphic" in2="BackgroundImageFix" result="shape"/>
<feGaussianBlur stdDeviation="188.235" result="effect1_foregroundBlur_525_15597"/>
</filter>
<filter id="filter2_f_525_15597" x="-724.113" y="-110.113" width="1877.23" height="1877.23" filterUnits="userSpaceOnUse" color-interpolation-filters="sRGB">
<feFlood flood-opacity="0" result="BackgroundImageFix"/>
<feBlend mode="normal" in="SourceGraphic" in2="BackgroundImageFix" result="shape"/>
<feGaussianBlur stdDeviation="311.057" result="effect1_foregroundBlur_525_15597"/>
</filter>
<filter id="filter3_f_525_15597" x="46.742" y="475.742" width="1162.52" height="1162.52" filterUnits="userSpaceOnUse" color-interpolation-filters="sRGB">
<feFlood flood-opacity="0" result="BackgroundImageFix"/>
<feBlend mode="normal" in="SourceGraphic" in2="BackgroundImageFix" result="shape"/>
<feGaussianBlur stdDeviation="192.629" result="effect1_foregroundBlur_525_15597"/>
</filter>
<clipPath id="clip0_525_15597">
<rect width="1440" height="1024" fill="white"/>
</clipPath>
</defs>
</svg>
