<svg width="406" height="171" viewBox="0 0 406 171" fill="none" xmlns="http://www.w3.org/2000/svg">
<circle cx="122.539" cy="61.1308" r="6.05098" stroke="#57B610" stroke-width="2.59328"/>
<circle cx="290.533" cy="162.329" r="6.32602" stroke="#B7E398" stroke-width="2.71115"/>
<path fill-rule="evenodd" clip-rule="evenodd" d="M136.088 81.2031C131.263 81.2031 127.352 85.1146 127.352 89.9395C127.352 94.7645 131.263 98.676 136.088 98.676H350.528C355.353 98.676 359.264 94.7645 359.264 89.9395C359.264 85.1146 355.353 81.2031 350.528 81.2031H136.088ZM170.242 107.412C170.242 102.587 174.153 98.6761 178.978 98.6761H275.873C280.698 98.6761 284.609 102.587 284.609 107.412C284.609 112.207 280.747 116.1 275.964 116.148H328.291C333.116 116.148 337.027 120.06 337.027 124.885C337.027 129.71 333.116 133.621 328.291 133.621H50.3141C45.4891 133.621 41.5776 129.71 41.5776 124.885C41.5776 120.06 45.4891 116.148 50.3141 116.148H178.887C174.104 116.1 170.242 112.207 170.242 107.412ZM65.4039 142.358C65.4039 137.533 69.3153 133.622 74.1403 133.622H250.457C255.282 133.622 259.194 137.533 259.194 142.358C259.194 147.183 255.282 151.095 250.457 151.095H185.422C190.205 151.144 194.067 155.036 194.067 159.831C194.067 164.656 190.156 168.567 185.331 168.567H9.01377C4.18878 168.567 0.277344 164.656 0.277344 159.831C0.277344 155.006 4.18877 151.094 9.01376 151.094H74.0492C69.2661 151.045 65.4039 147.153 65.4039 142.358Z" fill="#F2FFE1"/>
<path fill-rule="evenodd" clip-rule="evenodd" d="M249.453 7.28976C249.453 3.4854 252.537 0.401367 256.342 0.401367H321.468C325.272 0.401367 328.357 3.4854 328.357 7.28976C328.357 11.0941 325.272 14.1782 321.468 14.1782H256.342C252.537 14.1782 249.453 11.0941 249.453 7.28976ZM249.453 33.5906C249.453 29.7863 252.537 26.7022 256.342 26.7022H263.65C261.88 25.4555 260.724 23.3963 260.724 21.067C260.724 17.2627 263.808 14.1786 267.612 14.1786H282.641C286.446 14.1786 289.53 17.2627 289.53 21.067C289.53 23.3963 288.374 25.4555 286.604 26.7022H321.468C325.272 26.7022 328.357 29.7863 328.357 33.5906C328.357 37.395 325.272 40.479 321.468 40.479H256.342C252.537 40.479 249.453 37.395 249.453 33.5906Z" fill="#F2FFE1"/>
<rect x="381.197" y="81.2021" width="24.0467" height="16.5321" rx="8.26607" fill="#F2FFE1"/>
<circle cx="205.705" cy="108.891" r="61.1188" fill="#BCE886"/>
<circle cx="197.687" cy="102.211" r="59.1149" fill="#57B610"/>
<path d="M197.852 43.0962C213.573 43.0962 228.651 49.3417 239.768 60.4587C250.885 71.5757 257.131 86.6536 257.131 102.375C257.131 118.097 250.885 133.175 239.768 144.292C228.651 155.409 213.573 161.655 197.852 161.655C182.13 161.655 167.052 155.409 155.935 144.292C144.818 133.175 138.572 118.097 138.572 102.375C138.572 86.6536 144.818 71.5757 155.935 60.4587C167.052 49.3417 182.13 43.0962 197.852 43.0962ZM190.467 114.07L177.299 100.893C176.826 100.421 176.266 100.047 175.649 99.7914C175.032 99.5359 174.371 99.4044 173.704 99.4044C173.036 99.4044 172.375 99.5359 171.758 99.7914C171.141 100.047 170.581 100.421 170.109 100.893C169.155 101.847 168.62 103.14 168.62 104.488C168.62 105.837 169.155 107.13 170.109 108.083L186.876 124.851C187.347 125.325 187.907 125.702 188.524 125.959C189.141 126.216 189.803 126.348 190.471 126.348C191.14 126.348 191.801 126.216 192.418 125.959C193.035 125.702 193.595 125.325 194.066 124.851L228.787 90.1216C229.265 89.6514 229.646 89.0912 229.907 88.4733C230.167 87.8554 230.303 87.1919 230.306 86.5212C230.31 85.8504 230.18 85.1857 229.925 84.5654C229.67 83.9451 229.294 83.3813 228.82 82.9068C228.346 82.4322 227.783 82.0562 227.163 81.8004C226.543 81.5447 225.878 81.4142 225.208 81.4165C224.537 81.4188 223.873 81.5539 223.255 81.814C222.637 82.0741 222.076 82.454 221.606 82.9318L190.467 114.07Z" fill="#E3FDCA"/>
<path d="M181.791 47.6608C181.436 46.4435 180.16 45.7399 178.958 46.1416C168.454 49.6503 159.13 56.0456 152.067 64.6158C145.005 73.1859 140.509 83.5596 139.072 94.5407C138.907 95.7979 139.842 96.916 141.105 97.0316C142.367 97.1472 143.48 96.2163 143.648 94.9596C144.998 84.897 149.135 75.3943 155.611 67.5358C162.087 59.6773 170.624 53.8015 180.243 50.5534C181.445 50.1478 182.146 48.8781 181.791 47.6608Z" fill="#57B610"/>
<path d="M255.162 133.308C256.325 133.912 257.763 133.461 258.321 132.275C262.745 122.888 264.712 112.516 264.017 102.136C263.269 90.9654 259.467 80.2149 253.026 71.0576C246.586 61.9002 237.753 54.6879 227.493 50.2077C217.959 46.0446 207.533 44.3892 197.203 45.3795C195.898 45.5046 194.987 46.7049 195.163 48.004C195.338 49.3031 196.534 50.2085 197.839 50.0877C207.307 49.2113 216.856 50.7431 225.593 54.5582C235.057 58.6904 243.203 65.3425 249.144 73.7886C255.084 82.2347 258.591 92.1502 259.281 102.453C259.918 111.966 258.131 121.471 254.106 130.085C253.551 131.272 253.999 132.703 255.162 133.308Z" fill="#57B610"/>
<path d="M240.157 151.749C240.986 152.765 242.484 152.92 243.467 152.053C247.285 148.685 250.667 144.854 253.535 140.647C254.273 139.564 253.933 138.097 252.822 137.401C251.711 136.705 250.25 137.045 249.508 138.125C246.92 141.895 243.884 145.335 240.465 148.371C239.485 149.241 239.329 150.733 240.157 151.749Z" fill="#57B610"/>
<path d="M159.849 146.043C158.885 146.932 158.821 148.438 159.746 149.366C169.547 159.199 182.425 165.421 196.27 166.963C210.115 168.505 224.047 165.269 235.771 157.832C236.878 157.13 237.147 155.647 236.402 154.569C235.657 153.49 234.182 153.223 233.072 153.922C222.291 160.711 209.504 163.66 196.796 162.245C184.087 160.83 172.262 155.139 163.239 146.145C162.311 145.22 160.812 145.155 159.849 146.043Z" fill="#57B610"/>
<path d="M381.57 68.6358H375.845V74.3613H373.936V68.6358H368.211V66.7274H373.936V61.002H375.845V66.7274H381.57V68.6358Z" fill="#57B610"/>
</svg>
